# xmcd CD database file
#
# Track frame offsets:
#	150
#	37301
#	97400
#	128949
#	178616
#	246732
#	264970
#
# Disc length: 4095 seconds
#
# Revision: 1
# Processed by: cddbd v1.5.1PL0 Copyright (c) Steve Scherf et al.
# Submitted via: CDex 1.51
#
DISCID=6d0ffd07
DTITLE=Emergency! - Loveman Plays Psychedelic Swing
DYEAR=1900
DGENRE=Jazz
TTITLE0=Re-Boptism
TTITLE1=Creole Love Call
TTITLE2=Canon
TTITLE3=Emergency! Walkin'
TTITLE4=Don't Say It - The Inflated Tear
TTITLE5=Jelly Roll
TTITLE6=The Look of Love
EXTD=
EXTT0=
EXTT1=
EXTT2=
EXTT3=
EXTT4=
EXTT5=
EXTT6=
PLAYORDER=
